<?xml version="1.0" encoding="UTF-8"?>
<!DOCTYPE svg PUBLIC "-//W3C//DTD SVG 1.1//EN" "http://www.w3.org/Graphics/SVG/1.1/DTD/svg11.dtd">
<!-- Creator: CorelDRAW 2020 (64-Bit) -->
<svg xmlns="http://www.w3.org/2000/svg" xml:space="preserve" width="653px" height="756px" version="1.1" style="shape-rendering:geometricPrecision; text-rendering:geometricPrecision; image-rendering:optimizeQuality; fill-rule:evenodd; clip-rule:evenodd"
viewBox="0 0 653.01 756.4"
 xmlns:xlink="http://www.w3.org/1999/xlink"
 xmlns:xodm="http://www.corel.com/coreldraw/odm/2003">
 <defs>
  <style type="text/css">
   <![CDATA[
    .fil0 {fill:url(#id0);fill-rule:nonzero}
   ]]>
  </style>
  <linearGradient id="id0" gradientUnits="userSpaceOnUse" x1="0" y1="378.2" x2="653.01" y2="378.2">
   <stop offset="0" style="stop-opacity:1; stop-color:#0F62FE"/>
   <stop offset="0.360784" style="stop-opacity:1; stop-color:#4731FE"/>
   <stop offset="1" style="stop-opacity:1; stop-color:#8000FF"/>
  </linearGradient>
 </defs>
 <g id="图层_x0020_1">
  <metadata id="CorelCorpID_0Corel-Layer"/>
  <path class="fil0" d="M321.08 0l-321.08 190.65 0 376.57 326.5 189.18 326.51 -188.59 0 -377.77 -331.93 -190.04zm5.42 63.33l65.37 37.57 -273.61 158.04 0 239.92 208.24 120.81 0 75.47 -273.62 -158.54 0 -315.56 273.62 -157.71 0 0 0 0zm65.37 518.34l142.88 -83.49 0 -164.52 65.37 -37.76 0 241.2 -208.25 120.33 0 -75.76zm142.67 -323.36l-65.33 -37.78 -101.43 58.46 -65.2 -37.74 166.63 -96.21 130.91 75.48 -65.58 37.79z"/>
 </g>
</svg>
